<svg xmlns="http://www.w3.org/2000/svg" xmlns:xlink="http://www.w3.org/1999/xlink" width="500" zoomAndPan="magnify" viewBox="0 0 375 374.999991" height="500" preserveAspectRatio="xMidYMid meet" version="1.0"><defs><g/></defs><g fill="#000000" fill-opacity="1"><g transform="translate(29.378945, 184.383748)"><g><path d="M 23.015625 -2.878906 L 20.136719 -5.757812 L 20.136719 -33.074219 L 18.699219 -34.515625 L 8.636719 -34.515625 L 11.5 -31.636719 L 11.5 -4.320312 L 12.9375 -2.878906 Z M 4.320312 0 L 0 -4.320312 L 0 -33.074219 L 4.320312 -37.394531 L 27.335938 -37.394531 L 31.636719 -33.074219 L 31.636719 -4.320312 L 27.335938 0 Z M 4.320312 0 "/></g></g></g><g fill="#000000" fill-opacity="1"><g transform="translate(63.651662, 184.383748)"><g><path d="M 21.578125 -14.378906 L 23.015625 -15.816406 L 23.015625 -33.074219 L 21.578125 -34.515625 L 11.5 -34.515625 L 14.378906 -31.636719 L 14.378906 -14.378906 Z M 0 0 L 2.878906 -2.878906 L 2.878906 -34.515625 L 0 -37.394531 L 30.195312 -37.394531 L 34.515625 -33.074219 L 34.515625 -15.816406 L 30.195312 -11.5 L 11.5 -11.5 L 14.378906 -8.636719 L 14.378906 -2.878906 L 17.257812 0 Z M 0 0 "/></g></g></g><g fill="#000000" fill-opacity="1"><g transform="translate(100.803823, 184.383748)"><g><path d="M 23.015625 -20.136719 L 23.015625 -31.636719 L 20.136719 -34.515625 L 17.257812 -34.515625 L 14.378906 -31.636719 L 14.378906 -20.136719 Z M 0 0 L 2.878906 -2.878906 L 2.878906 -28.757812 L 11.5 -37.394531 L 25.894531 -37.394531 L 34.515625 -28.757812 L 34.515625 -2.878906 L 37.394531 0 L 21.578125 0 L 23.015625 -2.878906 L 23.015625 -14.378906 L 25.894531 -17.257812 L 11.5 -17.257812 L 14.378906 -14.378906 L 14.378906 -2.878906 L 15.816406 0 Z M 0 0 "/></g></g></g><g fill="#000000" fill-opacity="1"><g transform="translate(140.835376, 184.383748)"><g><path d="M 23.015625 -2.878906 L 20.136719 -5.757812 L 20.136719 -33.074219 L 18.699219 -34.515625 L 8.636719 -34.515625 L 11.5 -31.636719 L 11.5 -4.320312 L 12.9375 -2.878906 Z M 4.320312 0 L 0 -4.320312 L 0 -33.074219 L 4.320312 -37.394531 L 27.335938 -37.394531 L 31.636719 -33.074219 L 31.636719 -7.199219 L 27.335938 -2.878906 L 31.636719 -2.878906 L 34.515625 0 Z M 4.320312 0 "/></g></g></g><g fill="#000000" fill-opacity="1"><g transform="translate(177.987543, 184.383748)"><g><path d="M 7.199219 0 L 2.878906 -4.320312 L 2.878906 -34.515625 L 0 -37.394531 L 15.816406 -37.394531 L 14.378906 -34.515625 L 14.378906 -5.757812 L 11.5 -2.878906 L 25.894531 -2.878906 L 23.015625 -5.757812 L 23.015625 -34.515625 L 21.578125 -37.394531 L 37.394531 -37.394531 L 34.515625 -34.515625 L 34.515625 -4.320312 L 30.195312 0 Z M 7.199219 0 "/></g></g></g><g fill="#000000" fill-opacity="1"><g transform="translate(218.019108, 184.383748)"><g><path d="M 0 0 L 2.878906 -2.878906 L 2.878906 -34.515625 L 0 -37.394531 L 28.757812 -37.394531 L 28.757812 -28.757812 L 23.015625 -34.515625 L 11.5 -34.515625 L 14.378906 -31.636719 L 14.378906 -23.015625 L 20.136719 -23.015625 L 23.015625 -25.894531 L 23.015625 -17.257812 L 20.136719 -20.136719 L 11.5 -20.136719 L 14.378906 -17.257812 L 14.378906 -4.320312 L 11.5 -2.878906 L 23.015625 -2.878906 L 28.757812 -8.636719 L 28.757812 0 Z M 0 0 "/></g></g></g><g fill="#000000" fill-opacity="1"><g transform="translate(29.378945, 234.24366)"><g><path d="M 0 0 L 2.878906 -2.878906 L 2.878906 -34.515625 L 0 -37.394531 L 17.257812 -37.394531 L 14.378906 -34.515625 L 14.378906 -2.878906 L 17.257812 0 Z M 0 0 "/></g></g></g><g fill="#000000" fill-opacity="1"><g transform="translate(49.273218, 234.24366)"><g><path d="M 0 0 L 2.878906 -2.878906 L 2.878906 -34.515625 L 1.441406 -37.394531 L 12.9375 -37.394531 L 25.894531 -11.5 L 25.894531 -34.515625 L 24.457031 -37.394531 L 31.636719 -37.394531 L 28.757812 -34.515625 L 28.757812 -2.878906 L 30.195312 0 L 20.136719 0 L 5.757812 -28.757812 L 5.757812 -2.878906 L 7.199219 0 Z M 0 0 "/></g></g></g><g fill="#000000" fill-opacity="1"><g transform="translate(83.545934, 234.24366)"><g><path d="M 21.578125 -2.878906 L 23.015625 -4.320312 L 23.015625 -33.074219 L 21.578125 -34.515625 L 11.5 -34.515625 L 14.378906 -31.636719 L 14.378906 -5.757812 L 11.5 -2.878906 Z M 0 0 L 2.878906 -2.878906 L 2.878906 -34.515625 L 0 -37.394531 L 30.195312 -37.394531 L 34.515625 -33.074219 L 34.515625 -4.320312 L 30.195312 0 Z M 0 0 "/></g></g></g><g fill="#000000" fill-opacity="1"><g transform="translate(120.698096, 234.24366)"><g><path d="M 7.199219 0 L 2.878906 -4.320312 L 2.878906 -34.515625 L 0 -37.394531 L 15.816406 -37.394531 L 14.378906 -34.515625 L 14.378906 -5.757812 L 11.5 -2.878906 L 25.894531 -2.878906 L 23.015625 -5.757812 L 23.015625 -34.515625 L 21.578125 -37.394531 L 37.394531 -37.394531 L 34.515625 -34.515625 L 34.515625 -4.320312 L 30.195312 0 Z M 7.199219 0 "/></g></g></g><g fill="#000000" fill-opacity="1"><g transform="translate(160.729654, 234.24366)"><g><path d="M 0 0 L 0 -15.816406 L 12.9375 -2.878906 L 20.136719 -2.878906 L 20.136719 -4.320312 L 1.441406 -23.015625 L 1.441406 -31.636719 L 7.199219 -37.394531 L 20.136719 -37.394531 L 23.015625 -34.515625 L 25.894531 -37.394531 L 25.894531 -24.457031 L 15.816406 -34.515625 L 8.636719 -34.515625 L 8.636719 -33.074219 L 27.335938 -14.378906 L 27.335938 -5.757812 L 21.578125 0 L 5.757812 0 L 2.878906 -2.878906 Z M 0 0 "/></g></g></g><g fill="#000000" fill-opacity="1"><g transform="translate(192.122932, 234.24366)"><g><path d="M 7.199219 0 L 8.636719 -2.878906 L 8.636719 -33.074219 L 11.5 -34.515625 L 2.878906 -34.515625 L 0 -31.636719 L 0 -37.394531 L 28.757812 -37.394531 L 28.757812 -31.636719 L 25.894531 -34.515625 L 17.257812 -34.515625 L 20.136719 -33.074219 L 20.136719 -2.878906 L 21.578125 0 Z M 7.199219 0 "/></g></g></g><g fill="#000000" fill-opacity="1"><g transform="translate(223.516209, 234.24366)"><g><path d="M 21.578125 -17.257812 L 23.015625 -18.699219 L 23.015625 -31.636719 L 20.136719 -34.515625 L 11.5 -34.515625 L 14.378906 -31.636719 L 14.378906 -17.257812 Z M 0 0 L 2.878906 -2.878906 L 2.878906 -34.515625 L 0 -37.394531 L 30.195312 -37.394531 L 34.515625 -33.074219 L 34.515625 -21.578125 L 30.195312 -17.257812 L 37.394531 -2.878906 L 40.273438 0 L 27.335938 0 L 20.136719 -14.378906 L 11.5 -14.378906 L 14.378906 -11.5 L 14.378906 -2.878906 L 17.257812 0 Z M 0 0 "/></g></g></g><g fill="#000000" fill-opacity="1"><g transform="translate(266.427219, 234.24366)"><g><path d="M 0 0 L 2.878906 -2.878906 L 2.878906 -34.515625 L 0 -37.394531 L 17.257812 -37.394531 L 14.378906 -34.515625 L 14.378906 -2.878906 L 17.257812 0 Z M 0 0 "/></g></g></g><g fill="#000000" fill-opacity="1"><g transform="translate(286.321499, 234.24366)"><g><path d="M 0 0 L 2.878906 -2.878906 L 2.878906 -34.515625 L 0 -37.394531 L 28.757812 -37.394531 L 28.757812 -28.757812 L 23.015625 -34.515625 L 11.5 -34.515625 L 14.378906 -31.636719 L 14.378906 -23.015625 L 20.136719 -23.015625 L 23.015625 -25.894531 L 23.015625 -17.257812 L 20.136719 -20.136719 L 11.5 -20.136719 L 14.378906 -17.257812 L 14.378906 -4.320312 L 11.5 -2.878906 L 23.015625 -2.878906 L 28.757812 -8.636719 L 28.757812 0 Z M 0 0 "/></g></g></g><g fill="#000000" fill-opacity="1"><g transform="translate(317.714777, 234.24366)"><g><path d="M 0 0 L 0 -15.816406 L 12.9375 -2.878906 L 20.136719 -2.878906 L 20.136719 -4.320312 L 1.441406 -23.015625 L 1.441406 -31.636719 L 7.199219 -37.394531 L 20.136719 -37.394531 L 23.015625 -34.515625 L 25.894531 -37.394531 L 25.894531 -24.457031 L 15.816406 -34.515625 L 8.636719 -34.515625 L 8.636719 -33.074219 L 27.335938 -14.378906 L 27.335938 -5.757812 L 21.578125 0 L 5.757812 0 L 2.878906 -2.878906 Z M 0 0 "/></g></g></g></svg>